<?xml version="1.0" encoding="UTF-8"?><svg id="Layer_2" xmlns="http://www.w3.org/2000/svg" viewBox="0 0 433.96 211.03"><defs><style>.cls-1{fill:#fff;stroke-width:0px;}</style></defs><g id="Layer_1-2"><path class="cls-1" d="M248.12,59.5c-28.65,0-51.96,23.31-51.96,51.96s23.31,51.96,51.96,51.96,51.96-23.31,51.96-51.96-23.31-51.96-51.96-51.96ZM248.12,143.94c-17.91,0-32.48-14.57-32.48-32.48s14.57-32.48,32.48-32.48,32.48,14.57,32.48,32.48-14.57,32.48-32.48,32.48Z"/><path class="cls-1" d="M176.38,59.7c-1.78-.2-3.56-.32-5.34-.32-.89,0-1.74.02-2.61.04-.87.03-1.74.1-2.61.15-3.47.28-6.95.86-10.35,1.79-6.81,1.84-13.38,5.04-19.05,9.58-5.68,4.51-10.38,10.45-13.48,17.13-1.55,3.34-2.71,6.86-3.41,10.43-.35,1.79-.62,3.58-.78,5.38-.06.9-.16,1.8-.17,2.69l-.03,1.34v.67s-.01.56-.01.56l.04,17.4.04,17.4.12,17.4h19.49l.12-17.4.04-17.4.04-17.4v-.53s.02-.42.02-.42l.02-.83c0-.56.08-1.1.11-1.65.1-1.09.27-2.16.48-3.22.44-2.11,1.1-4.15,1.98-6.07,1.77-3.84,4.42-7.28,7.82-10,3.38-2.72,7.43-4.76,11.81-5.97,2.19-.61,4.46-1,6.77-1.19.58-.03,1.16-.09,1.74-.11.58,0,1.17-.04,1.74-.03,1.12,0,2.23.07,3.34.18,4.43.44,8.74,1.81,12.63,4l9.73-16.89c-6.17-3.6-13.12-5.9-20.22-6.71Z"/><path class="cls-1" d="M51.96,59.24C23.31,59.24,0,82.55,0,111.2s23.31,51.96,51.96,51.96h17.09v-19.49h-17.09c-17.91,0-32.48-14.57-32.48-32.48s14.57-32.48,32.48-32.48,32.55,14.57,32.55,32.48h0v47.86h0c0,17.79-14.49,32.28-32.23,32.47-8.54-.09-16.55-3.46-22.6-9.5l-13.78,13.78c9.65,9.65,22.42,15.03,36.03,15.21h0c.12,0,.23,0,.35,0,.12,0,.24,0,.36,0h0c28.25-.39,51.12-23.42,51.25-51.73l.02-49.37c-.68-28.07-23.72-50.69-51.95-50.69Z"/><path class="cls-1" d="M362.86,59.5c-28.65,0-51.96,23.31-51.96,51.96s23.31,51.96,51.96,51.96h17.78v-19.49h-17.78c-17.91,0-32.48-14.57-32.48-32.48s14.57-32.48,32.48-32.48c16.96,0,30.91,13.07,32.35,29.66h-.03v99.78h19.49v-96.96h0c0-28.65-23.15-51.96-51.8-51.96Z"/><path class="cls-1" d="M63.2,10.72c0,6.49-4.7,10.41-12.46,10.41h-8.19v9.63h-3.22V.26h11.41c7.75,0,12.46,3.92,12.46,10.45ZM59.98,10.72c0-4.88-3.22-7.67-9.32-7.67h-8.1v15.25h8.1c6.1,0,9.32-2.79,9.32-7.58Z"/><path class="cls-1" d="M71.17,15.51c0-8.89,6.79-15.51,16.03-15.51s15.99,6.58,15.99,15.51-6.84,15.51-15.99,15.51-16.03-6.62-16.03-15.51ZM99.96,15.51c0-7.27-5.44-12.63-12.76-12.63s-12.85,5.36-12.85,12.63,5.49,12.63,12.85,12.63,12.76-5.36,12.76-12.63Z"/><path class="cls-1" d="M154.62.26l-10.28,30.49h-3.4l-8.93-26-8.97,26h-3.35L109.4.26h3.31l8.8,26.22L130.62.26h3.01l8.97,26.35L151.52.26h3.09Z"/><path class="cls-1" d="M185.32,27.96v2.79h-21.56V.26h20.91v2.79h-17.68v10.85h15.77v2.74h-15.77v11.33h18.34Z"/><path class="cls-1" d="M216.98,30.75l-6.97-9.8c-.78.09-1.57.13-2.44.13h-8.19v9.67h-3.22V.26h11.41c7.75,0,12.46,3.92,12.46,10.45,0,4.79-2.53,8.15-6.97,9.58l7.45,10.45h-3.53ZM216.8,10.72c0-4.88-3.22-7.67-9.32-7.67h-8.1v15.29h8.1c6.1,0,9.32-2.83,9.32-7.62Z"/><path class="cls-1" d="M252.47,27.96v2.79h-21.56V.26h20.91v2.79h-17.68v10.85h15.77v2.74h-15.77v11.33h18.34Z"/><path class="cls-1" d="M263.31.26h12.41c9.76,0,16.33,6.27,16.33,15.25s-6.58,15.25-16.33,15.25h-12.41V.26ZM275.55,27.96c8.1,0,13.33-5.14,13.33-12.46s-5.23-12.46-13.33-12.46h-9.02v24.92h9.02Z"/><path class="cls-1" d="M342.71,22.61c0,5.18-3.83,8.15-11.46,8.15h-14.03V.26h13.15c6.79,0,10.72,2.87,10.72,7.84,0,3.49-1.87,5.79-4.66,6.93,3.92.87,6.27,3.44,6.27,7.58ZM320.45,2.92v11.06h9.71c4.88,0,7.71-1.87,7.71-5.53s-2.83-5.53-7.71-5.53h-9.71ZM339.49,22.35c0-3.96-2.92-5.71-8.28-5.71h-10.76v11.46h10.76c5.36,0,8.28-1.74,8.28-5.75Z"/><path class="cls-1" d="M363.13,20.21v10.54h-3.18v-10.54L347.76.26h3.44l10.45,17.12L372.11.26h3.22l-12.2,19.95Z"/><path class="cls-1" d="M433.96,58.69c0,5.37-4.18,9.57-9.54,9.57s-9.49-4.21-9.49-9.52,4.13-9.52,9.54-9.52,9.49,4.1,9.49,9.46ZM432.93,58.69c0-4.8-3.61-8.47-8.47-8.47s-8.55,3.75-8.55,8.52,3.67,8.52,8.49,8.52,8.52-3.77,8.52-8.57ZM426.81,60.3l2.53,3.88h-1.46l-2.35-3.64c-.22.03-.4.03-.62.03h-2.8v3.61h-1.4v-10.89h4.21c2.67,0,4.31,1.4,4.31,3.61,0,1.67-.89,2.86-2.43,3.4ZM427.87,56.91c0-1.54-1.11-2.43-3.02-2.43h-2.75v4.91h2.75c1.91,0,3.02-.92,3.02-2.48Z"/></g></svg>